# Blender v2.93.1 OBJ File: 'pool.blend'
# www.blender.org
mtllib GroundLight.mtl
o Cube.008_Cube.009
v -6.442809 -1.189503 7.128452
v -6.442809 -1.189503 -5.767427
v -5.646280 -1.189503 7.128452
v -5.646280 -1.189503 -5.767427
vt 0.875000 0.500000
vt 0.625000 0.750000
vt 0.625000 0.500000
vt 0.875000 0.750000
vn 0.0000 1.0000 0.0000
usemtl None
s off
f 2/1/1 3/2/1 4/3/1
f 2/1/1 1/4/1 3/2/1
o Cube.009_Cube.010
v -1.726141 -1.189503 7.128452
v -1.726141 -1.189503 -5.767427
v -0.929611 -1.189503 7.128452
v -0.929611 -1.189503 -5.767427
vt 0.875000 0.500000
vt 0.625000 0.750000
vt 0.625000 0.500000
vt 0.875000 0.750000
vn 0.0000 1.0000 0.0000
usemtl None
s off
f 6/5/2 7/6/2 8/7/2
f 6/5/2 5/8/2 7/6/2
