# Blender v2.93.1 OBJ File: 'pool.blend'
# www.blender.org
mtllib Pool.mtl
o Pool_Plane
v -12.865616 -3.063895 14.614167
v 5.479160 -3.063895 14.614167
v -12.865616 -3.063895 -10.318115
v 5.479160 -3.063895 -10.318115
v -8.487379 -1.211551 7.183452
v 1.291556 -1.211551 7.183452
v -8.487379 -1.211551 -5.835740
v 1.291556 -1.211551 -5.835740
v -12.865616 2.122615 -10.318115
v -12.865616 2.122615 14.614167
v 5.479160 2.122615 14.614167
v 5.479160 2.122615 -10.318115
v -8.765968 2.122615 -8.135655
v -8.765968 2.122615 9.483368
v 1.570146 2.122615 9.483368
v 1.570146 2.122615 -8.135655
v -3.709696 0.000000 1.000000
v -1.709696 0.000000 1.000000
v -3.709696 0.000000 -1.000000
v -1.709696 0.000000 -1.000000
v -3.693228 -3.063895 2.148026
v -3.597911 -1.211551 0.000000
v -3.693228 -0.470640 -10.318115
v -3.693228 -0.470640 14.614166
v 5.479160 -0.470640 2.148026
v -12.865614 -0.470640 2.148026
v -11.147541 2.122615 1.829593
v -3.670625 2.122615 11.965657
v 3.842566 2.122615 1.846381
v -3.687414 2.122615 -9.458069
v -8.645397 1.206757 0.000000
v -3.597911 1.036899 8.602523
v 1.449575 1.206757 0.000000
v -3.597911 0.614498 -7.013761
v -2.709696 0.000000 0.000000
vt 0.131421 0.131421
vt 0.868579 0.131421
vt 0.500000 0.500000
vt 1.000000 1.000000
vt 0.000000 1.000000
vt 0.500000 1.000000
vt 0.000000 0.000000
vt 1.000000 0.000000
vt 0.500000 0.000000
vt 1.000000 0.500000
vt 0.000000 0.500000
vt 0.105759 0.105759
vt 0.105759 0.894241
vt 0.044321 0.470547
vt 0.894241 0.105759
vt 0.498596 0.043236
vt 0.894241 0.894241
vt 0.955722 0.469834
vt 0.497526 0.958323
vt 0.131421 0.868579
vt 0.116865 0.500000
vt 0.500000 0.118319
vt 0.868579 0.868579
vt 0.883135 0.500000
vt 0.500000 0.881681
vt 0.000000 0.000000
vt 1.000000 0.000000
vt 0.500000 0.500000
vt 0.500000 0.500000
vt 0.000000 1.000000
vt 1.000000 1.000000
vt 1.000000 0.000000
vt 0.000000 0.000000
vt 1.000000 1.000000
vt 0.000000 1.000000
vn 0.0000 1.0000 0.0000
vn 0.0000 0.0000 -1.0000
vn 0.0000 0.0000 1.0000
vn 1.0000 -0.0000 0.0000
vn -1.0000 0.0000 0.0000
vn 0.9979 0.0652 0.0000
vn 0.0000 0.5337 -0.8457
vn -0.9979 0.0652 0.0000
vn 0.0000 0.5421 0.8403
vn 0.0000 -1.0000 0.0000
vn 0.9968 0.0793 -0.0059
vn 0.9914 0.1305 0.0000
vn 0.9968 0.0799 0.0050
vn -0.0214 0.5665 -0.8238
vn 0.0000 0.6300 -0.7766
vn 0.0214 0.5665 -0.8238
vn -0.9968 0.0799 0.0050
vn -0.9914 0.1305 0.0000
vn -0.9968 0.0793 -0.0059
vn 0.0133 0.5670 0.8236
vn 0.0000 0.5969 0.8023
vn -0.0133 0.5670 0.8236
usemtl None
s off
f 5/1/1 6/2/1 22/3/1
f 4/4/2 3/5/2 23/6/2
f 1/7/3 2/8/3 24/9/3
f 2/8/4 4/4/4 25/10/4
f 3/5/5 1/7/5 26/11/5
f 14/12/1 13/13/1 27/14/1
f 15/15/1 14/12/1 28/16/1
f 16/17/1 15/15/1 29/18/1
f 13/13/1 16/17/1 30/19/1
f 5/1/6 7/20/6 31/21/6
f 6/2/7 5/1/7 32/22/7
f 8/23/8 6/2/8 33/24/8
f 7/20/9 8/23/9 34/25/9
f 17/26/1 18/27/1 35/28/1
f 1/7/10 3/5/10 21/29/10
f 3/5/10 4/4/10 21/29/10
f 4/4/10 2/8/10 21/29/10
f 2/8/10 1/7/10 21/29/10
f 6/2/1 8/23/1 22/3/1
f 8/23/1 7/20/1 22/3/1
f 7/20/1 5/1/1 22/3/1
f 3/5/2 9/30/2 23/6/2
f 9/30/2 12/31/2 23/6/2
f 12/31/2 4/4/2 23/6/2
f 2/8/3 11/32/3 24/9/3
f 11/32/3 10/33/3 24/9/3
f 10/33/3 1/7/3 24/9/3
f 4/4/4 12/31/4 25/10/4
f 12/31/4 11/32/4 25/10/4
f 11/32/4 2/8/4 25/10/4
f 1/7/5 10/33/5 26/11/5
f 10/33/5 9/30/5 26/11/5
f 9/30/5 3/5/5 26/11/5
f 13/13/1 9/30/1 27/14/1
f 9/30/1 10/33/1 27/14/1
f 10/33/1 14/12/1 27/14/1
f 14/12/1 10/33/1 28/16/1
f 10/33/1 11/32/1 28/16/1
f 11/32/1 15/15/1 28/16/1
f 15/15/1 11/32/1 29/18/1
f 11/32/1 12/31/1 29/18/1
f 12/31/1 16/17/1 29/18/1
f 16/17/1 12/31/1 30/19/1
f 12/31/1 9/30/1 30/19/1
f 9/30/1 13/13/1 30/19/1
f 7/20/11 13/13/11 31/21/11
f 13/13/12 14/12/12 31/21/12
f 14/12/13 5/1/13 31/21/13
f 5/1/14 14/12/14 32/22/14
f 14/12/15 15/15/15 32/22/15
f 15/15/16 6/2/16 32/22/16
f 6/2/17 15/15/17 33/24/17
f 15/15/18 16/17/18 33/24/18
f 16/17/19 8/23/19 33/24/19
f 8/23/20 16/17/20 34/25/20
f 16/17/21 13/13/21 34/25/21
f 13/13/22 7/20/22 34/25/22
f 18/27/1 20/34/1 35/28/1
f 20/34/1 19/35/1 35/28/1
f 19/35/1 17/26/1 35/28/1
